<svg xmlns="http://www.w3.org/2000/svg" viewBox="0 0 500.84 115.86"><defs><style>.cls-1{fill:#3f9;}.cls-2{fill:#fff;}</style></defs><g id="Capa_2" data-name="Capa 2"><g id="Bstadium"><g id="horizontal_positivo"><path class="cls-1" d="M176.25,28.36h24.94q8.53,0,13.12,3.7t4.59,10.62A11.4,11.4,0,0,1,216.48,50a13.13,13.13,0,0,1-6.92,4.31,16.33,16.33,0,0,1,8.69,4.83,12.4,12.4,0,0,1,3.06,8.53q0,7.8-5.51,12T200,83.88H176.25Zm22.13,23.33a5.45,5.45,0,0,0,3.86-1.28,4.76,4.76,0,0,0,1.37-3.63,4.49,4.49,0,0,0-1.37-3.54,5.66,5.66,0,0,0-3.86-1.2h-5.23v9.65Zm0,18.51A6.18,6.18,0,0,0,202.56,69a4.34,4.34,0,0,0,1.45-3.5,4.59,4.59,0,0,0-1.45-3.62,6.08,6.08,0,0,0-4.18-1.29h-5.23V70.2Z"></path><path class="cls-2" d="M232.66,84a21.46,21.46,0,0,1-6.92-3l.8-11.66a36.09,36.09,0,0,0,16.25,4.9c2.31,0,3.46-.67,3.46-2a2,2,0,0,0-1.32-1.81,17.34,17.34,0,0,0-3.14-1.2q-1.81-.52-2.46-.69a33.77,33.77,0,0,1-9.85-4.51c-2.5-1.76-3.74-4.42-3.74-8q0-6.36,3.94-9.42t10.78-3.05a52.79,52.79,0,0,1,16.66,3.22l-.81,10.86A55.07,55.07,0,0,0,249,55a24.52,24.52,0,0,0-6.72-1.24c-1.93,0-2.9.56-2.9,1.69a1.49,1.49,0,0,0,1,1.36,11.76,11.76,0,0,0,2.49.85q1.53.36,2.34.6a30.9,30.9,0,0,1,9.73,4.59q3.8,2.82,3.79,8.53,0,6.84-4.91,10.26c-3.27,2.28-7.49,3.42-12.63,3.42A34.19,34.19,0,0,1,232.66,84Z"></path><path class="cls-2" d="M290.75,83a18.68,18.68,0,0,1-8.45,2.1q-7.08,0-10.9-3.54t-3.82-10.14V56.12h-5.64l2.42-11.27h3.22V32h13.68V44.85h7.24V56.12h-7.24V70.6c0,2.52,1.28,3.78,3.86,3.78a6.08,6.08,0,0,0,2.89-.56Z"></path><path class="cls-2" d="M325,47.67q4.19,4,4.18,11.67V83.88H317.38l-.8-4.35a14.41,14.41,0,0,1-5.15,4.15A14.87,14.87,0,0,1,305,85.09q-5.31,0-8.29-3.06t-3-8.37a12.36,12.36,0,0,1,5.63-10.94q5.63-3.78,16.09-3.78V57.25c0-2.1-1.8-3.14-5.39-3.14a26.33,26.33,0,0,0-6,.76,37.25,37.25,0,0,0-6.4,2.13l-2.49-9.25a32.19,32.19,0,0,1,8.32-3,41.55,41.55,0,0,1,9.14-1.08Q320.76,43.65,325,47.67Zm-9.5,26.07v-8a9.89,9.89,0,0,0-5.67,1.36,4.59,4.59,0,0,0-2,4,4.34,4.34,0,0,0,1,3,3.84,3.84,0,0,0,3,1.13A4.49,4.49,0,0,0,315.45,73.74Z"></path><path class="cls-2" d="M373.23,25.14V83.88H362l-1.37-5.55a14.63,14.63,0,0,1-4.91,5.15,12.14,12.14,0,0,1-6.27,1.61,12.44,12.44,0,0,1-10.74-5.52q-3.92-5.5-3.91-15.57,0-9.81,3.87-15.08t11.26-5.27a16.35,16.35,0,0,1,5.59.92,10,10,0,0,1,4.07,2.62v-22ZM359.55,72.05V56.6A6.78,6.78,0,0,0,355,54.91a5.11,5.11,0,0,0-4.55,2.42c-1,1.61-1.57,3.94-1.57,7a13.19,13.19,0,0,0,1.57,7A5.1,5.1,0,0,0,355,73.82,6.57,6.57,0,0,0,359.55,72.05Z"></path><path class="cls-2" d="M380.39,34.23a6.49,6.49,0,0,1,1.77-4.91,8.69,8.69,0,0,1,10.3,0,6.49,6.49,0,0,1,1.77,4.91q0,6.6-6.92,6.6T380.39,34.23Zm.08,10.62h13.68v39H380.47Z"></path><path class="cls-2" d="M436.47,44.85v39H425.21l-1-5.47a23.33,23.33,0,0,1-5.87,5,13.55,13.55,0,0,1-6.76,1.73A10.6,10.6,0,0,1,404,82.31,9.63,9.63,0,0,1,401.07,75V44.85h13.68V69a4.32,4.32,0,0,0,1,2.9A3.24,3.24,0,0,0,418.29,73a4.81,4.81,0,0,0,2.33-.73,6.68,6.68,0,0,0,2.17-1.93V44.85Z"></path><path class="cls-2" d="M497.94,46.42a9.6,9.6,0,0,1,2.9,7.28V83.88H487.16V59.74a4.34,4.34,0,0,0-1-2.9,3.24,3.24,0,0,0-2.58-1.12,4.86,4.86,0,0,0-2.33.72,6.8,6.8,0,0,0-2.17,1.93V83.88H465.44V59.74a4.34,4.34,0,0,0-1-2.9,3.21,3.21,0,0,0-2.57-1.12,4.89,4.89,0,0,0-2.34.72,6.8,6.8,0,0,0-2.17,1.93V83.88H443.71v-39H455l1,5.48a22.79,22.79,0,0,1,5.88-4.95,13.38,13.38,0,0,1,6.75-1.73,11.27,11.27,0,0,1,6.4,1.73,8.69,8.69,0,0,1,3.58,4.86,10.65,10.65,0,0,1,4.75-4.74,14.32,14.32,0,0,1,7-1.85A10.57,10.57,0,0,1,497.94,46.42Z"></path><path class="cls-1" d="M25.55,101.53c7.54-2.24,9.29-2.34,13.93-1.69a64,64,0,0,0,8.52.59l59.7.09a33.81,33.81,0,0,0,7.44-.77c23.79-5.41,23.73-32.74,18.27-44.2a18.85,18.85,0,0,0-9.13-8.78c13.87-8,12.12-33.51.44-41.77C120,1.15,112.82.19,107,.05,103.4,0,100.1,0,96.36.19c-3.44.2-7,.51-10.23,1.88-4.14,1.78-6.64,5-9.53,8.29-2.48,2.81-5.72,6.68-9.81,6.75-19.35.33-53.29.69-56,0V34.7c1.28-.42,23.77.61,37.85-.18a21.12,21.12,0,0,0,11.73-4.29,10.72,10.72,0,0,0,2.23-2.16C68.78,19.48,74.17,17.75,80,17.68h27.13a11,11,0,0,1,11,11V29a11,11,0,0,1-11,11c-8.84,0-30.36,0-38.47,0-13.59,0-15,15.41-25.25,15.46-20.1.09-23.2,0-38,0,.1,0,0,14.87,0,16.32,43.88,2.29,30.13-7.69,42.88-13.63a19.8,19.8,0,0,1,8.41-1.64h50.59a13.21,13.21,0,0,1,.05,26.42c-12,0-41.22,0-55.59,0-30.89.1-12.74,15.89-40.46,16-3.26,0-7,.24-11.35.2v16.62c15.53,1.32,16.52-11.56,25.55-14.23"></path></g></g></g></svg>