<svg id="Capa_1" data-name="Capa 1" xmlns="http://www.w3.org/2000/svg" viewBox="0 0 34.99 34.93"><defs><style>.cls-1{fill:#33fe98;}</style></defs><g id="HOME-MOVIL"><path id="Shape" class="cls-1" d="M28.5,3.9A17.48,17.48,0,1,0,35,17.5,17.6,17.6,0,0,0,28.5,3.9Zm-1,.9L26.3,6,21,4.6l-.8-3.1a18.55,18.55,0,0,1,7.3,3.3ZM20.6,6l5.3,1.4,1.4,5.3-3.9,3.9-5.3-1.4L16.7,9.9Zm-5.3,4.2,1.5,5.3-3.9,3.9L7.6,18,6.2,12.7l3.9-3.9ZM6.1,6.1a16.32,16.32,0,0,1,2-1.7L9,7.9,5.1,11.8l-2.5-.7a18,18,0,0,1,3.5-5ZM6,28.8a12,12,0,0,1-1.7-2.1l-.9-3.6,3.9-3.9,5.3,1.4L14,26l-3.9,3.9Zm5.5,3.6L11,30.9,15,27l5.3,1.4,1.2,4.7a15.63,15.63,0,0,1-10-.7Zm17.4-3.5a16.13,16.13,0,0,1-6.1,3.8l-1.2-4.6,3.9-3.9,5.3,1.4.2.8a25.25,25.25,0,0,1-2.1,2.5Zm3.9-6.3-1.7,1.7-5.3-1.4-1.4-5.3,3.9-3.9,5.2,1.4a17.33,17.33,0,0,1-.7,7.5Z" transform="translate(-0.01 -0.06)"/></g></svg>