<svg id="Capa_1" data-name="Capa 1" xmlns="http://www.w3.org/2000/svg" viewBox="0 0 24.29 26.86"><defs><style>.cls-1{fill:none;stroke:#33fe98;stroke-linecap:round;stroke-linejoin:round;stroke-width:2px;}</style></defs><g id="HOME_desktop" data-name="HOME desktop"><g id="_211014_Home-desktop_newsletter" data-name="211014_Home-desktop_newsletter"><g id="Group-42"><g id="Group-57"><path id="Path" class="cls-1" d="M23.29,18.33V8.43a2.5,2.5,0,0,0-1.24-2.14l-8.67-5a2.49,2.49,0,0,0-2.48,0l-8.66,5A2.45,2.45,0,0,0,1,8.43v9.9a2.48,2.48,0,0,0,1.24,2.15l8.66,4.95a2.49,2.49,0,0,0,2.48,0l8.67-4.95A2.52,2.52,0,0,0,23.29,18.33Z" transform="translate(0 0)"/><polyline id="Path-2" data-name="Path" class="cls-1" points="1.33 7.14 12.14 13.39 22.95 7.14"/><path id="Path-3" data-name="Path" class="cls-1" d="M12.14,25.86V13.38" transform="translate(0 0)"/></g></g></g></g></svg>