<svg id="Capa_1" data-name="Capa 1" xmlns="http://www.w3.org/2000/svg" viewBox="0 0 45.72 42.2"><defs><style>.cls-1{fill:#33fe98;}</style></defs><path class="cls-1" d="M46.26,7.6c-1.7,1.6-2.9,3.4-2.8,5.8V16c0,.9-.5,1.2-1.2,1a11.42,11.42,0,0,1-2.6-.9c-.3-.2-.4-.7-.6-1.1a3.45,3.45,0,0,1,1.1-.5,6.18,6.18,0,0,1,1.6.4,9.08,9.08,0,0,1,2.1-7.4c-2-.7-3.8-1.3-5.7-1.9,0,.3,0,.5-.1.6-.3.3-.6.8-.9.7a1.08,1.08,0,0,1-.8-.9c-.1-1.1,0-2.3,0-3.5H10.76v3c0,.6.1,1.4-.7,1.4-.6.1-1.1-.4-1.5-.8,0-.1.1-.3.1-.4-1.8.6-3.6,1.2-5.6,1.9a9,9,0,0,1,2,7.4,5.62,5.62,0,0,1,1.5-.4,3.08,3.08,0,0,1,1.2.5c-.2.4-.3,1-.6,1.1a11.42,11.42,0,0,1-2.6.9c-.7.2-1.2-.1-1.2-.9a14.72,14.72,0,0,1,0-2.1,7.25,7.25,0,0,0-2.1-5.9c-1-1.1-.8-1.6.6-2.1,2-.7,4-1.4,6.1-2,.8-.2,1-.6,1-1.4C9,.8,9,.8,10.86.8h25.7c1.5,0,1.7.1,1.6,1.6-.1,1.1.4,1.5,1.3,1.8,1.9.5,3.8,1.2,5.6,1.8.5.2.9.4,1.3.6A3.75,3.75,0,0,0,46.26,7.6Z" transform="translate(-0.64 -0.8)"/><path class="cls-1" d="M28.46,42.8a8.33,8.33,0,0,1-.4-1.5c.5-3.9,1.1-7.9,1.7-11.8a5.73,5.73,0,0,1,.4-1.4c1.9-5.1,3.8-10.2,5.7-15.2a3.81,3.81,0,0,0,.3-1c-.1-.4-.4-.9-.6-.9a1.43,1.43,0,0,0-1.2.6c-.8,1.4-1.6,2.9-2.4,4.4-.3.6-.6,1.7-1.6,1.2s-.3-1.4,0-2c.7-1.4,1.5-2.8,2.2-4.2.9-1.8,2.4-2.4,3.9-1.7s1.9,2.1,1.3,3.8c-1.9,5-3.9,10-5.6,15a46.41,46.41,0,0,0-1.4,7.6c-.3,1.9-.6,3.9-.9,5.9a6.12,6.12,0,0,1-.5,1.2Z" transform="translate(-0.64 -0.8)"/><path class="cls-1" d="M17.46,42.8c-.3-1.2-.6-2.4-.8-3.6-.5-3-.8-6-1.3-8.9a18.55,18.55,0,0,0-1.2-3.8L9.06,13a2.78,2.78,0,0,1,3.8-3.6,3.53,3.53,0,0,1,1.3,1.4c.9,1.5,1.7,3.1,2.5,4.7.3.6.6,1.3-.2,1.7s-1.1-.2-1.4-.8l-2.4-4.5c-.3-.6-.7-1.2-1.5-.8s-.6,1-.4,1.7c1.4,3.8,2.8,7.7,4.4,11.5a42.88,42.88,0,0,1,2.7,11.1c.2,2,.6,3.9.8,5.9a5.55,5.55,0,0,1-.3,1.7A1.49,1.49,0,0,0,17.46,42.8Z" transform="translate(-0.64 -0.8)"/><path class="cls-1" d="M23.46,15.4A5.45,5.45,0,1,1,18,20.8,5.38,5.38,0,0,1,23.46,15.4Zm-3.7,5.4a3.67,3.67,0,0,0,3.6,3.7,3.65,3.65,0,1,0,.1-7.3A3.61,3.61,0,0,0,19.76,20.8Z" transform="translate(-0.64 -0.8)"/><path class="cls-1" d="M24,11.7h-5.7c-.6,0-1.2-.1-1.2-.9s.6-.9,1.2-.9h11.1c.6,0,1.2.1,1.2.8s-.6.9-1.3.9C27.56,11.7,25.76,11.7,24,11.7Z" transform="translate(-0.64 -0.8)"/></svg>