<?xml version="1.0" encoding="utf-8"?>
<!-- Generator: Adobe Illustrator 26.0.2, SVG Export Plug-In . SVG Version: 6.00 Build 0)  -->
<svg version="1.1" id="Capa_1" xmlns="http://www.w3.org/2000/svg" xmlns:xlink="http://www.w3.org/1999/xlink" x="0px" y="0px"
	 viewBox="0 0 23 23" style="enable-background:new 0 0 23 23;" xml:space="preserve">
<style type="text/css">
	.st0{fill:#33FE98;}
</style>
<desc>Created with Sketch.</desc>
<g id="Artboard-Copy-12">
	<g id="Group-11" transform="translate(1.500000, 0.000000)">
		<path id="Path" class="st0" d="M5.1,8.4c0.1,0,0.2,0,0.3-0.1C5.4,8.2,5.5,8.1,5.5,8c0-0.1,0-0.2-0.1-0.3S5.2,7.6,5.1,7.6
			c-0.1,0-0.2,0-0.3,0.1C4.7,7.8,4.7,7.9,4.7,8c0,0.1,0,0.2,0.1,0.3C4.9,8.3,5,8.4,5.1,8.4z"/>
		<path id="Path_00000155837362007194963090000015911396982578516660_" class="st0" d="M10.6,7.9c-0.1-0.1-0.2-0.1-0.3-0.1
			c-0.1,0-0.2,0-0.3,0.1S9.9,8,9.9,8.1c0,0.1,0,0.2,0.1,0.3s0.2,0.1,0.3,0.1c0.1,0,0.2,0,0.3-0.1c0.1-0.1,0.1-0.2,0.1-0.3
			C10.7,8,10.7,7.9,10.6,7.9z"/>
		<path id="Path_00000126310666239907830150000008499599157295614852_" class="st0" d="M11.7,7.2c0.1,0,0.2,0,0.3-0.1
			s0.1-0.2,0.1-0.3s0-0.2-0.1-0.3s-0.2-0.1-0.3-0.1c-0.1,0-0.2,0-0.3,0.1s-0.1,0.2-0.1,0.3s0,0.2,0.1,0.3S11.6,7.2,11.7,7.2z"/>
		<path id="Shape" class="st0" d="M18.6,9.5h-1.1l1.9-1.9c0.2-0.2,0.3-0.5,0.3-0.8c0-0.3-0.1-0.6-0.3-0.8l-1.7-1.7
			c-0.2-0.2-0.4-0.2-0.5,0c-0.2,0.2-0.5,0.3-0.8,0.3c-0.3,0-0.6-0.1-0.8-0.3c-0.2-0.2-0.3-0.5-0.3-0.8c0-0.3,0.1-0.6,0.3-0.8
			c0.1-0.1,0.1-0.2,0.1-0.3c0-0.1,0-0.2-0.1-0.3l-1.7-1.7C13.6,0.1,13.3,0,13,0c-0.3,0-0.6,0.1-0.8,0.3L5.8,6.7
			c-0.2,0.2-0.2,0.4,0,0.5c0.2,0.2,0.4,0.2,0.5,0l6.4-6.4c0.1-0.1,0.2-0.1,0.3-0.1s0.2,0,0.3,0.1l1.5,1.5c-0.2,0.3-0.3,0.7-0.3,1.1
			c0,0.5,0.2,1,0.6,1.4c0.4,0.4,0.8,0.6,1.4,0.6c0.4,0,0.8-0.1,1.1-0.3l1.5,1.5c0.2,0.2,0.2,0.4,0,0.5l-2.4,2.4h-1.7L16,8.2
			c0.2-0.2,0.2-0.4,0-0.5l-3.9-3.9c-0.2-0.2-0.4-0.2-0.5,0L5.8,9.5H1.2C0.5,9.5,0,10,0,10.7v2.4c0,0.2,0.2,0.4,0.4,0.4
			c0.6,0,1.2,0.5,1.2,1.2c0,0.6-0.5,1.2-1.2,1.2C0.2,15.8,0,16,0,16.2v2.4c0,0.6,0.5,1.2,1.2,1.2h17.4c0.6,0,1.2-0.5,1.2-1.2v-2.4
			c0-0.2-0.2-0.4-0.4-0.4c-0.6,0-1.2-0.5-1.2-1.2c0-0.6,0.5-1.2,1.2-1.2c0.2,0,0.4-0.2,0.4-0.4v-2.4C19.8,10,19.2,9.5,18.6,9.5z
			 M11.8,4.6L15.2,8l-1.5,1.5h-1.5l1.1-1.1c0.2-0.2,0.2-0.4,0-0.5c-0.2-0.2-0.4-0.2-0.5,0L11,9.5H6.9L11.8,4.6z M19,12.7
			c-0.9,0.2-1.5,1-1.5,1.9c0,0.9,0.7,1.7,1.5,1.9v2.1c0,0.2-0.2,0.4-0.4,0.4H1.2c-0.2,0-0.4-0.2-0.4-0.4v-2.1c0.9-0.2,1.5-1,1.5-1.9
			c0-0.9-0.7-1.7-1.5-1.9v-2.1c0-0.2,0.2-0.4,0.4-0.4h17.4c0.2,0,0.4,0.2,0.4,0.4V12.7z"/>
		<path id="Path_00000137114641919570474790000016984534196723121567_" class="st0" d="M8.2,14c0.1-0.1,0.1-0.2,0.1-0.3
			c0-0.1,0-0.2-0.1-0.3S8.1,13.3,8,13.3c-0.1,0-0.2,0-0.3,0.1c-0.1,0.1-0.1,0.2-0.1,0.3c0,0.1,0,0.2,0.1,0.3C7.8,14,7.9,14.1,8,14.1
			C8.1,14.1,8.2,14,8.2,14z"/>
		<path id="Path_00000073717755960300619310000013544967187624256146_" class="st0" d="M12.1,14c0.1-0.1,0.1-0.2,0.1-0.3
			c0-0.1,0-0.2-0.1-0.3s-0.2-0.1-0.3-0.1s-0.2,0-0.3,0.1s-0.1,0.2-0.1,0.3c0,0.1,0,0.2,0.1,0.3c0.1,0.1,0.2,0.1,0.3,0.1
			S12,14,12.1,14z"/>
		<path id="Path_00000047752092092403559060000006018824748294230153_" class="st0" d="M10.2,14c0.1-0.1,0.1-0.2,0.1-0.3
			c0-0.1,0-0.2-0.1-0.3s-0.2-0.1-0.3-0.1c-0.1,0-0.2,0-0.3,0.1s-0.1,0.2-0.1,0.3c0,0.1,0,0.2,0.1,0.3c0.1,0.1,0.2,0.1,0.3,0.1
			C10,14.1,10.1,14,10.2,14z"/>
		<path id="Path_00000036967303737452166180000001503704261661126569_" class="st0" d="M6.1,14.1c0.1,0,0.2,0,0.3-0.1
			c0.1-0.1,0.1-0.2,0.1-0.3c0-0.1,0-0.2-0.1-0.3c-0.1-0.1-0.2-0.1-0.3-0.1c-0.1,0-0.2,0-0.3,0.1c-0.1,0.1-0.1,0.2-0.1,0.3
			c0,0.1,0,0.2,0.1,0.3C5.9,14,6,14.1,6.1,14.1z"/>
		<path id="Path_00000137093748454659404610000000559795851992208261_" class="st0" d="M14,14c0.1-0.1,0.1-0.2,0.1-0.3
			c0-0.1,0-0.2-0.1-0.3s-0.2-0.1-0.3-0.1c-0.1,0-0.2,0-0.3,0.1s-0.1,0.2-0.1,0.3c0,0.1,0,0.2,0.1,0.3c0.1,0.1,0.2,0.1,0.3,0.1
			C13.8,14.1,13.9,14,14,14z"/>
		<path id="Path_00000043438015021687609450000011960714382524914318_" class="st0" d="M6.1,15.9h7.6c0.2,0,0.4-0.2,0.4-0.4
			c0-0.2-0.2-0.4-0.4-0.4H6.1c-0.2,0-0.4,0.2-0.4,0.4C5.7,15.8,5.8,15.9,6.1,15.9z"/>
		<path id="Path_00000161616677223850955900000012245591004941317020_" class="st0" d="M7.5,17c-0.1,0-0.2,0-0.3,0.1
			c-0.1,0.1-0.1,0.2-0.1,0.3c0,0.1,0,0.2,0.1,0.3c0.1,0.1,0.2,0.1,0.3,0.1c0.1,0,0.2,0,0.3-0.1c0.1-0.1,0.1-0.2,0.1-0.3
			c0-0.1,0-0.2-0.1-0.3C7.7,17.1,7.6,17,7.5,17z"/>
		<path id="Path_00000083052037292926863180000017824329235748789427_" class="st0" d="M15.7,11.5H4c-0.2,0-0.4,0.2-0.4,0.4v5.6
			c0,0.2,0.2,0.4,0.4,0.4h1.6c0.2,0,0.4-0.2,0.4-0.4C6,17.2,5.8,17,5.6,17H4.4v-4.8h11V17H9.1c-0.2,0-0.4,0.2-0.4,0.4
			c0,0.2,0.2,0.4,0.4,0.4h6.7c0.2,0,0.4-0.2,0.4-0.4v-5.6C16.1,11.6,16,11.5,15.7,11.5z"/>
	</g>
</g>
</svg>
