<?xml version="1.0" encoding="utf-8"?>
<!-- Generator: Adobe Illustrator 26.0.2, SVG Export Plug-In . SVG Version: 6.00 Build 0)  -->
<svg version="1.1" id="Capa_1" xmlns="http://www.w3.org/2000/svg" xmlns:xlink="http://www.w3.org/1999/xlink" x="0px" y="0px"
	 viewBox="0 0 44 34" style="enable-background:new 0 0 44 34;" xml:space="preserve">
<style type="text/css">
	.st0{fill-rule:evenodd;clip-rule:evenodd;fill:#33FE98;}
</style>
<desc>Created with Sketch.</desc>
<g id="Page-1">
	<g id="_x34_04-ERROR-DIANA" transform="translate(-775.000000, -883.000000)">
		<g id="Group-9" transform="translate(775.984471, 883.322701)">
			<g id="Group-8">
				<path id="Fill-4" class="st0" d="M25.8,1.9c8.2,0,14.9,6.7,14.9,14.9S34,31.7,25.8,31.7h-9.5c-8.2,0-14.9-6.7-14.9-14.9
					S8.1,1.9,16.3,1.9H25.8z M0.2,16.8c0,8.9,7.2,16.1,16.1,16.1h9.6c8.9,0,16.1-7.2,16.1-16.1S34.7,0.8,25.8,0.8h-9.5
					C7.5,0.8,0.2,8,0.2,16.8L0.2,16.8z"/>
				<path id="Fill-6" class="st0" d="M9.5,23.5v-1.2h4.3c0.3,0,0.6-0.3,0.6-0.6V12c0-0.3-0.3-0.6-0.6-0.6H9.5v-1.2h11v3.7
					c-1.6,0.3-2.7,1.9-2.4,3.6c0.2,1.2,1.2,2.1,2.4,2.4v3.7H9.5z M9.5,12.6v8.5h3.6v-8.5H9.5z M20.5,18.6c-0.9-0.3-1.5-1.4-1.1-2.3
					c0.2-0.5,0.6-0.9,1.1-1.1V18.6z M21.7,15.1c0.9,0.3,1.5,1.4,1.1,2.3c-0.2,0.5-0.6,0.9-1.1,1.1V15.1z M32.6,10.2v1.2h-4.3
					c-0.3,0-0.6,0.3-0.6,0.6v9.7c0,0.3,0.3,0.6,0.6,0.6h4.3v1.2h-11v-3.7c1.6-0.3,2.7-1.9,2.4-3.6c-0.2-1.2-1.2-2.1-2.4-2.4v-3.7
					H32.6z M29,12.6v8.5h3.6v-8.5H29z M33.8,24.1V9.5c0-0.3-0.3-0.6-0.6-0.6H8.9c-0.3,0-0.6,0.3-0.6,0.6v14.6c0,0.3,0.3,0.6,0.6,0.6
					h24.3C33.6,24.8,33.8,24.5,33.8,24.1L33.8,24.1z"/>
			</g>
		</g>
	</g>
</g>
</svg>
