<svg id="Capa_1" data-name="Capa 1" xmlns="http://www.w3.org/2000/svg" viewBox="0 0 21 21"><defs><style>.cls-1{fill:none;stroke:#33fe98;}.cls-2{fill:#33fe98;fill-rule:evenodd;}</style></defs><g id="Artboard-Copy-9"><g id="Group"><circle id="Oval" class="cls-1" cx="10.5" cy="10.5" r="10"/><g id="Group-66"><path id="Fill-90" class="cls-2" d="M14.31,8.53c0,1.94-1.42,4.45-3.18,4.45S8,10.47,8,8.53A3.35,3.35,0,0,1,11.13,5a3.35,3.35,0,0,1,3.18,3.51" transform="translate(-0.62 -0.65)"/><path id="Fill-91" class="cls-2" d="M16.94,15.73h0A2.64,2.64,0,0,0,14.3,13.1h-.79a3.36,3.36,0,0,1-2.3,1,3.36,3.36,0,0,1-2.3-1H8.16a2.64,2.64,0,0,0-2.64,2.63.69.69,0,0,0,.69.69H16.26a.69.69,0,0,0,.68-.69" transform="translate(-0.62 -0.65)"/></g></g></g></svg>