<svg id="Capa_1" data-name="Capa 1" xmlns="http://www.w3.org/2000/svg" viewBox="0 0 136.9 107.8"><defs><style>.cls-1,.cls-2{fill:#33fe98;}.cls-1{stroke:#33fe98;stroke-miterlimit:10;}</style></defs><g id="Group-41"><g id="pelota"><path id="Shape" class="cls-1" d="M78.7,54.2a19.32,19.32,0,1,0,7.2,15A19.36,19.36,0,0,0,78.7,54.2Zm-1.1,1.1-1.4,1.4-5.8-1.6-.9-3.4a19.22,19.22,0,0,1,8.1,3.6ZM70,56.6l5.8,1.6L77.3,64,73,68.3l-5.8-1.6-1.6-5.8Zm-5.7,4.7,1.6,5.8-4.3,4.3-5.9-1.6L54.2,64l4.3-4.3ZM54,56.7a21.1,21.1,0,0,1,2.3-1.9l1,3.8L53,62.9l-2.7-.7A17.19,17.19,0,0,1,54,56.7Zm0,25.1a21.1,21.1,0,0,1-1.9-2.3l-1-3.9,4.3-4.3,5.8,1.6,1.6,5.8L58.5,83Zm6,4-.5-1.7,4.3-4.3,5.8,1.6,1.3,5.1A17.71,17.71,0,0,1,60,85.8Zm19.2-3.9a18.09,18.09,0,0,1-6.7,4.2L71.1,81l4.3-4.3,5.8,1.6.2.8a19.34,19.34,0,0,1-2.2,2.8Zm4.3-7-1.8,1.9-5.8-1.6-1.6-5.8,4.3-4.3,5.7,1.5a19.32,19.32,0,0,1-.8,8.3Z" transform="translate(-2 -1.9)"/></g></g><path class="cls-2" d="M70.4,109.7H13.7a10.85,10.85,0,0,1-5.3-1.2,11.25,11.25,0,0,1-6.3-8.7A9.15,9.15,0,0,1,2,98.1V39a11.58,11.58,0,0,1,8.5-11.1,10.32,10.32,0,0,1,3-.4H34.8a2.2,2.2,0,0,1,.8.1,2.25,2.25,0,0,1,1.8,2.1,3.4,3.4,0,0,1-.2,1.4,2.32,2.32,0,0,1-1.9,1.4H30.6a6.61,6.61,0,0,0-6.1,4.2,5.7,5.7,0,0,0-.4,2.2v59a6.21,6.21,0,0,0,.6,3,6.55,6.55,0,0,0,5.7,3.8h79.4a7.39,7.39,0,0,0,2.9-.5,6.64,6.64,0,0,0,4.1-6V39.3a6.81,6.81,0,0,0-.8-3.4,6.52,6.52,0,0,0-5.1-3.5c-.3,0-.6-.1-1-.1H98.5a2.12,2.12,0,0,1-1.8-1.8,2.86,2.86,0,0,1,.1-1.6,2,2,0,0,1,1.9-1.4h28.4a11.58,11.58,0,0,1,11.7,10.2,7.57,7.57,0,0,1,.1,1.5V97.9a11.69,11.69,0,0,1-6.6,10.6,11.16,11.16,0,0,1-4.7,1.1h-.7C108,109.7,89.2,109.7,70.4,109.7ZM21,32.5H12.8a6.56,6.56,0,0,0-5.9,6.3V97.7A9.15,9.15,0,0,0,7,99.3a6.4,6.4,0,0,0,6.1,5.3c2.6.1,5.1,0,7.7,0H21v-.1c-.1-.3-.3-.5-.4-.8a12.71,12.71,0,0,1-1.5-6V39a10.61,10.61,0,0,1,1-4.6c.2-.5.5-1,.7-1.5A.52.52,0,0,0,21,32.5Zm98.7,0c0,.1.1.2.1.3.2.3.3.7.5,1a12.19,12.19,0,0,1,1.3,5.3V56c.9.1,11.9,0,12.2,0V39.3a4.4,4.4,0,0,0-.2-1.6,6.73,6.73,0,0,0-6.4-5.2h-7.5Zm14.1,48.7H121.6V98a9.68,9.68,0,0,1-.8,4.1,20,20,0,0,1-1,2.1c-.1.1-.1.3-.2.4h7.5a5.94,5.94,0,0,0,4-1.4,6.73,6.73,0,0,0,2.6-5.4V81.6C133.8,81.6,133.8,81.4,133.8,81.2ZM121.7,61V76.3h12.1c.1-.5.1-15,0-15.3Z" transform="translate(-2 -1.9)"/><path class="cls-2" d="M67,1.9A51,51,0,0,1,83.4,4.8a46.84,46.84,0,0,1,17.4,11,2.22,2.22,0,0,1,.8,1.3,2.45,2.45,0,0,1-.9,2.5,2.37,2.37,0,0,1-2.3.6,2.59,2.59,0,0,1-1.1-.7,47.16,47.16,0,0,0-4.8-4.1A42.57,42.57,0,0,0,84,10.5a43.62,43.62,0,0,0-10.7-3,36.7,36.7,0,0,0-8.1-.4A42.44,42.44,0,0,0,36.7,19.4a2.65,2.65,0,0,1-.6.5,2,2,0,0,1-2.1.3A2.47,2.47,0,0,1,32.3,18a2.15,2.15,0,0,1,.4-1.5c.2-.2.3-.4.5-.6A46.69,46.69,0,0,1,56,3.4a37.63,37.63,0,0,1,6.6-1A22.83,22.83,0,0,1,67,1.9Z" transform="translate(-2 -1.9)"/><path class="cls-2" d="M66.6,20.2a29.4,29.4,0,0,0-20.4,8.6,2.24,2.24,0,0,1-1.5.8,2.77,2.77,0,0,1-.9-.1,2.45,2.45,0,0,1-1.9-2.1,2.27,2.27,0,0,1,.5-1.8l1.5-1.5a33.52,33.52,0,0,1,15.8-8,28.65,28.65,0,0,1,5-.7c1.3,0,2.7-.1,4,0a34.54,34.54,0,0,1,13,3.2,33.85,33.85,0,0,1,9.6,6.7l.4.4a2.11,2.11,0,0,1,.2,2.5A2.85,2.85,0,0,1,90,29.7a2.05,2.05,0,0,1-1.7-.5,4.62,4.62,0,0,1-.7-.7,31.66,31.66,0,0,0-3.5-2.9,30.37,30.37,0,0,0-11.9-4.9A52.93,52.93,0,0,0,66.6,20.2Z" transform="translate(-2 -1.9)"/><path class="cls-2" d="M78.9,40.3a2,2,0,0,1-1.5-.6c-.4-.3-.7-.7-1.1-1A14.19,14.19,0,0,0,69,35.5a14.33,14.33,0,0,0-12.1,4,2.65,2.65,0,0,1-.6.5,1.7,1.7,0,0,1-1.8.2,2.7,2.7,0,0,1-1.8-1.8,2.17,2.17,0,0,1,.6-2.3,19.35,19.35,0,0,1,3.6-2.8A19.38,19.38,0,0,1,80.7,36a2.65,2.65,0,0,1,.5.6,2.49,2.49,0,0,1,.3,1.7A3,3,0,0,1,78.9,40.3Z" transform="translate(-2 -1.9)"/></svg>